<?xml version="1.0" encoding="UTF-8"?>
<svg id="Capa_2" data-name="Capa 2" xmlns="http://www.w3.org/2000/svg" viewBox="0 0 71.34 72.88">
  <defs>
    <style>
      .cls-1 {
        fill: #fff;
      }
    </style>
  </defs>
  <g id="PC">
    <g id="PC_-_INICIO" data-name="PC - INICIO">
      <g id="MENU">
        <g>
          <path class="cls-1" d="m38.35,45.93c-9.84,0-19.69,0-29.53,0-.43,0-.71-.16-.88-.55-.22-.49-.38-.99-.36-1.53.02-.6.01-1.2.08-1.8.09-.85.63-1.29,1.48-1.29,11.16.01,22.31.03,33.47.04,7.31,0,14.62,0,21.93,0,.65,0,.83-.17.83-.83,0-.21,0-.43-.04-.64-.05-.35-.2-.48-.54-.5-.1,0-.2,0-.31,0-18.01,0-36.01,0-54.02,0-.61,0-1.22-.01-1.81-.13-.77-.16-1.05-.58-1.05-1.38,0-2.55,0-5.11,0-7.66,0-.82.48-1.33,1.08-1.77.09-.07.25-.07.38-.07.52,0,1.04,0,1.56,0,.6-.01,1.2.08,1.78-.16.11-.05.26-.02.39-.02,18.28,0,36.56,0,54.85,0,.25,0,.51,0,.76,0,.45-.03.74.2.91.58.26.57.41,1.16.34,1.8-.05.4.04.82-.02,1.22-.07.44-.22.88-.38,1.3-.14.36-.44.5-.83.49-.94-.02-1.87-.01-2.81-.01-8.92,0-17.83,0-26.75-.01-8.83,0-17.65,0-26.48,0-.11,0-.22,0-.34,0-.35.04-.49.18-.5.53,0,.28,0,.57,0,.85,0,.35.18.52.53.52.68,0,1.36,0,2.05,0,2.56,0,5.13.03,7.69.03,15.31,0,30.62-.02,45.93-.03,1.25,0,1.87.56,2.01,1.82.04.36.06.73.06,1.09,0,2.1-.03,4.19.02,6.29.02.95-.51,1.46-1.42,1.75-.26.08-.56.07-.85.07-9.73,0-19.46,0-29.19,0Z"/>
          <path class="cls-1" d="m38.79,53.88c-9.75,0-19.5,0-29.25,0-.9,0-1.68-.25-2.34-.85-.55-.5-.88-1.14-.95-1.89-.07-.82-.05-1.63.39-2.37.59-1,1.45-1.6,2.62-1.6,19.67,0,39.33,0,59,0,1.18,0,2,.61,2.59,1.59.82,1.34.58,3-.39,4.11-.58.66-1.34,1.01-2.26,1-5.88-.01-11.77,0-17.65,0-3.92,0-7.84,0-11.76,0h0Z"/>
          <path class="cls-1" d="m10.1,17.7c1.04-.03,2.09-.04,3.13-.1,1.68-.09,3.37-.16,5.04-.32,2.1-.21,4.19-.49,6.28-.77,4.31-.57,8.52-1.66,12.69-2.85,2.74-.78,5.39-1.81,8.01-2.91,1.6-.67,3.22-1.31,4.76-2.09,1.98-1,3.91-2.1,5.84-3.21,1.32-.75,2.61-1.55,3.88-2.39,1.23-.81,2.4-1.7,3.6-2.54,1.43-.99,2.79-.53,3.68.72,1.14,1.6.76,3.79-.85,4.94-1.37.98-2.74,1.95-4.15,2.86-2.15,1.39-4.3,2.8-6.59,3.96-1.42.72-2.81,1.51-4.25,2.19-2.94,1.4-5.93,2.69-9.02,3.74-2.95,1-5.94,1.87-8.97,2.61-2.01.49-4.04.87-6.08,1.21-1.95.33-3.91.58-5.87.81-1.62.19-3.25.32-4.88.43-1.09.08-2.19.09-3.29.13-1.1.04-2.19.05-3.29.11-2.23.12-3.42-1.68-3.39-3.25.01-.5.22-1.03.44-1.5.24-.52.49-1.05.99-1.4.38-.26.78-.42,1.24-.43.35,0,.69,0,1.04,0,0,.01,0,.02,0,.03Z"/>
          <path class="cls-1" d="m5.6,45.51c0,5.72,0,11.44,0,17.16,0,.65-.14.79-.78.79-1.34,0-2.69,0-4.03,0C.16,63.46,0,63.3,0,62.67c0-11.47,0-22.94,0-34.41,0-.49.03-.55.64-.56,1.47-.02,2.93,0,4.4,0,.09,0,.18.03.27.03.23,0,.29.15.3.34,0,.12,0,.24,0,.37,0,5.69,0,11.38,0,17.07h0Z"/>
          <path class="cls-1" d="m.05,69.32c0-1.02,0-2.03,0-3.05,0-.49.14-.65.63-.65,1.42,0,2.85,0,4.27,0,.47,0,.59.14.6.61,0,2.06,0,4.13,0,6.19,0,.39-.06.45-.43.45-1.55,0-3.09,0-4.64,0-.38,0-.43-.05-.43-.45,0-1.04,0-2.07,0-3.11Z"/>
          <path class="cls-1" d="m59.3,69.27c0-.56.02-1.12,0-1.68-.04-1.01.33-1.2,1.24-1.29.23-.02.47.02.69.07.57.15.76.41.76,1.01,0,1.19-.01,2.38,0,3.57.02,1.06-.44,1.21-1.31,1.24-.24,0-.48-.05-.72-.1-.47-.1-.66-.33-.66-.8,0-.67,0-1.34,0-2.01Zm1.67.01s0,0,0,0c0-.68,0-1.36,0-2.04,0-.26-.16-.38-.39-.33-.27.06-.27.28-.27.48,0,.62,0,1.24,0,1.86,0,.64,0,1.28,0,1.92,0,.21.03.44.34.44.32,0,.33-.21.33-.43,0-.63,0-1.26,0-1.89Z"/>
          <path class="cls-1" d="m38.48,69.24c0,.66,0,1.32,0,1.98,0,.58-.27.88-.84.92-.38.02-.77,0-1.15-.06-.47-.07-.69-.31-.69-.78-.01-1.34-.02-2.68,0-4.02.01-.65.37-.93,1.21-.98.25-.01.51.02.75.09.55.15.72.4.72.97,0,.63,0,1.26,0,1.89h0Zm-1.65,0c0,.67,0,1.34,0,2.01,0,.11.06.26.14.3.1.05.29.05.36-.02.09-.09.15-.26.15-.4.01-.68,0-1.36,0-2.04,0-.59,0-1.18,0-1.77,0-.23-.07-.44-.36-.43-.28.01-.31.2-.31.43,0,.64,0,1.28,0,1.92Z"/>
          <path class="cls-1" d="m26.57,69.24c0,.67,0,1.34,0,2.02,0,.56-.27.85-.83.88-.37.02-.75,0-1.12-.05-.5-.07-.71-.29-.72-.79-.02-1.33-.02-2.67,0-4,.01-.66.33-.94.99-.94.37,0,.75.04,1.12.11.41.08.57.28.57.7,0,.69,0,1.38,0,2.08,0,0,0,0,0,0Zm-1.66,0c0,.65,0,1.3,0,1.95,0,.23.04.4.32.41.28,0,.35-.18.35-.4,0-1.3,0-2.61,0-3.91,0-.22-.08-.41-.35-.4-.27,0-.32.19-.32.42,0,.64,0,1.28,0,1.92Z"/>
          <path class="cls-1" d="m42.08,69.25c0-.66,0-1.32,0-1.98,0-.41.18-.66.56-.82.57-.23,1.13-.21,1.68.03.29.13.46.35.46.69,0,.46,0,.92,0,1.37,0,.22-.08.31-.3.31-.73.02-.73.02-.72-.7,0-.31,0-.61,0-.92,0-.23-.13-.34-.34-.33-.21.01-.29.15-.29.35,0,1.33,0,2.67,0,4,0,.21.08.33.3.34.23,0,.33-.12.33-.34,0-.22,0-.45,0-.67.01-.21-.02-.38-.22-.52-.1-.07-.17-.27-.14-.39.02-.09.2-.19.32-.2.27-.03.55-.01.82-.01.18,0,.25.1.25.27,0,.56,0,1.12,0,1.68,0,.27-.15.46-.38.58-.61.29-1.23.31-1.85.03-.3-.14-.45-.37-.45-.7,0-.69,0-1.38,0-2.08h0Z"/>
          <path class="cls-1" d="m20.66,57.31c.95.04,1.91.02,2.85.14.93.12,1.41,1.04,1.06,1.95-.17.45-.47.85-.74,1.25-.1.15-.11.24.01.39.51.6,1,1.21,1.5,1.81.35.42.78.67,1.34.69-.35.31-.98.34-1.42.06-.57-.36-.99-.87-1.38-1.4-.1-.14-.21-.28-.3-.42-.38-.63-.93-.8-1.64-.66,0,.61-.04,1.22.02,1.82.02.23.26.44.39.65h-1.74c.53-.39.52-.9.52-1.43-.01-1.24,0-2.48,0-3.72,0-.42-.1-.78-.49-1.02,0-.03.01-.07.02-.1Zm1.26,1.79c0,.33,0,.65,0,.98,0,.47.04.52.51.56.84.07,1.31-.24,1.43-.96.03-.19.03-.39.01-.58-.07-.82-.6-1.6-1.63-1.5-.22.02-.33.11-.33.34,0,.39,0,.77,0,1.16Z"/>
          <path class="cls-1" d="m54.04,69.26c0,.65,0,1.3,0,1.95,0,.22.06.38.32.38.26,0,.32-.17.32-.38,0-.39,0-.77,0-1.16,0-.29.12-.41.4-.41.78,0,.61,0,.62.58,0,.37,0,.73,0,1.1,0,.34-.14.56-.45.69-.58.26-1.16.27-1.74.02-.33-.14-.5-.38-.5-.73,0-1.37,0-2.75,0-4.12,0-.32.14-.56.45-.7.62-.29,1.23-.29,1.85.02.25.12.39.31.39.6,0,.49,0,.98,0,1.46,0,.22-.1.27-.3.28-.73.02-.73.02-.73-.7,0-.3,0-.61,0-.91,0-.23-.12-.35-.34-.34-.2,0-.3.13-.3.34,0,.67,0,1.34,0,2.01h0Z"/>
          <path class="cls-1" d="m68.34,67.63c0,.05,0,.1,0,.15,0,.59,0,.58-.59.59-.3,0-.43-.14-.44-.42,0-.23,0-.47,0-.7,0-.24-.14-.36-.37-.34-.24.02-.29.19-.24.4.14.64.43,1.22.8,1.76.38.56.7,1.14.79,1.82.11.83-.13,1.17-.95,1.3-.42.07-.83.02-1.22-.17-.3-.15-.47-.37-.46-.72,0-.26,0-.53.01-.79,0-.22.09-.39.35-.41.36-.02.58.09.62.35.04.24,0,.49.04.73.02.14.07.3.17.38.07.05.3.02.35-.05.07-.1.08-.28.05-.41-.2-.81-.59-1.53-1.04-2.22-.33-.51-.53-1.07-.56-1.68-.02-.35.14-.59.45-.72.6-.27,1.2-.26,1.8.02.28.13.43.36.44.68,0,.15,0,.31,0,.46Z"/>
          <path class="cls-1" d="m57.44,63.78c-1.76,0-3.44-1.57-3.45-3.21,0-2.02,1.31-3.36,3.28-3.36,1.82,0,3.36,1.59,3.36,3.45,0,1.72-1.44,3.13-3.2,3.12Zm-2.66-3.79c-.02,1.24.33,2,.9,2.66,1.11,1.27,3.14,1,3.9-.52.58-1.16.34-2.82-.55-3.81-.85-.94-2.27-1.09-3.27-.31-.74.58-.97,1.41-.99,1.97Z"/>
          <path class="cls-1" d="m2.79,20.21c.07.17.16.34.2.51.32,1.43.97,2.7,1.86,3.86.06.08.12.16.18.25.03.04.05.08.09.15H.19c1.23-1.4,2.05-2.98,2.49-4.76.04,0,.08,0,.12-.01Z"/>
          <path class="cls-1" d="m46.69,57.44c-.06.54-.11,1.05-.17,1.55-.02,0-.04.01-.06.02-.03-.08-.07-.16-.1-.25-.26-.74-.81-1.14-1.56-1.21-2.11-.21-3.44,1.37-2.92,3.44.37,1.48,1.57,2.45,2.99,2.43.72,0,1.25-.31,1.58-.95.04-.07.08-.14.12-.21,0-.02.03-.02.08-.06.1.43.04.82-.14,1.2-.03.06-.1.11-.16.12-.99.17-1.99.34-2.99.09-1.8-.44-2.7-2.05-2.22-3.9.27-1.06.77-1.95,1.89-2.27.5-.14,1.04-.19,1.56-.18.69,0,1.37.11,2.1.18Z"/>
          <path class="cls-1" d="m15.52,60.14c.64-.05,1.27-.1,1.92-.15-.05.38-.09.72-.13,1.07-.05,0-.08,0-.08-.02-.15-.51-.54-.6-1-.57-.23.02-.46,0-.75,0,0,.37,0,.75,0,1.13,0,.28,0,.57-.01.85-.01.3.1.53.36.69.59.36,1.18.3,1.66-.2.07-.07.13-.14.24-.26-.02.12-.04.18-.05.24q-.14.73-.89.73c-.81,0-1.63,0-2.53,0,.49-.32.47-.75.47-1.17,0-1.39-.01-2.79,0-4.18,0-.4-.06-.71-.51-.79-.04,0-.08-.05-.18-.12h3.53c-.06.32-.11.64-.17.96-.03,0-.06,0-.06-.01-.12-.5-.47-.64-.94-.61-.28.02-.57,0-.87,0v2.41Z"/>
          <path class="cls-1" d="m27.14,57.41h1.96c-.12.14-.31.25-.33.39-.03.16.07.35.13.52.48,1.27.96,2.54,1.45,3.81.03.08.07.16.13.3.07-.1.12-.15.15-.22.54-1.33,1.08-2.67,1.62-4,.12-.3.14-.58-.22-.76h1.23c-.15.25-.34.51-.46.8-.8,1.83-1.59,3.66-2.42,5.57-.13-.23-.24-.4-.32-.59-.68-1.64-1.35-3.28-2.02-4.92-.17-.43-.39-.78-.89-.89Z"/>
          <path class="cls-1" d="m66.24,58.45c-.07-.14-.14-.28-.22-.42-.32-.53-.98-.67-1.48-.32-.49.34-.6.97-.18,1.44.44.49.93.93,1.42,1.38.42.39.81.8.8,1.41,0,.27-.08.57-.22.8-.44.76-1.56,1.19-2.42.98-.55-.14-.72-.41-.61-.96.03-.16.08-.33.13-.52.04.05.06.07.06.08.09,1.18,1.36,1.28,2.02.79.47-.35.57-.87.19-1.32-.51-.61-1.06-1.18-1.59-1.77-.21-.24-.42-.48-.57-.74-.35-.62-.2-1.22.39-1.62.67-.44,1.41-.54,2.19-.4.09.02.23.14.23.22,0,.32-.05.64-.08.96-.02,0-.04,0-.06,0Z"/>
          <path class="cls-1" d="m9.17,68.98c.2,0,.38,0,.56,0,.17,0,.32.02.33.22,0,.21-.1.36-.32.37-.2.02-.4,0-.63,0,0,.7,0,1.36,0,2.01,0,.52-.03.55-.55.56-.13,0-.26,0-.41,0v-5.77c.62,0,1.23,0,1.85,0,.07,0,.2.17.19.19-.1.14-.2.32-.35.37-.19.06-.42.02-.66.02v2.02Z"/>
          <path class="cls-1" d="m10.94,58.46c-.06-.11-.11-.23-.17-.34-.32-.6-.96-.77-1.52-.4-.51.33-.6.98-.16,1.48.38.43.83.81,1.24,1.21.05.05.1.1.16.15.52.46.95.98.77,1.74-.2.82-.84,1.2-1.58,1.41-.33.09-.71.07-1.05.01-.53-.09-.72-.43-.61-.96.03-.16.08-.31.15-.55.04.14.06.21.08.28.1.56.48.88,1.09.91.54.03,1.16-.34,1.29-.8.08-.28.03-.55-.16-.77-.35-.42-.7-.84-1.07-1.25-.29-.32-.6-.61-.89-.92-.69-.76-.53-1.63.37-2.12.62-.33,1.27-.39,1.95-.28.2.03.3.14.26.36-.04.28-.06.56-.09.83-.02,0-.04,0-.05,0Z"/>
          <path class="cls-1" d="m18.33,72.14v-5.79c.23,0,.45-.02.67,0,.26.03.3.24.3.46,0,.99,0,1.97,0,2.96,0,.58,0,1.15,0,1.77.26,0,.49,0,.72,0,.2.01.38.08.37.32,0,.24-.18.28-.39.28-.55,0-1.09,0-1.67,0Z"/>
          <path class="cls-1" d="m30.24,72.14v-5.77c.21,0,.43-.05.63-.02.1.01.23.13.27.23.06.13.06.3.06.45,0,1.48,0,2.97,0,4.5.24,0,.47,0,.7,0,.2,0,.36.09.39.31.02.16-.03.29-.22.29-.61,0-1.21,0-1.84,0Z"/>
          <path class="cls-1" d="m49.37,66.35c.01.17.03.3.03.43,0,1.63,0,3.25,0,4.88,0,.15-.07.43-.15.44-.24.05-.51.03-.73-.05-.09-.03-.12-.3-.12-.46,0-1.41,0-2.83,0-4.24,0-.18,0-.37,0-.55.01-.36.09-.44.46-.45.16,0,.32,0,.53,0Z"/>
          <path class="cls-1" d="m14.64,66.37c0,.12.02.22.02.31,0,1.67,0,3.33,0,5,0,.15-.09.42-.16.43-.24.03-.49-.02-.74-.06-.04,0-.08-.16-.08-.24,0-1.71,0-3.42,0-5.12,0-.21.1-.3.29-.32.22-.01.44,0,.68,0Z"/>
          <path class="cls-1" d="m51.48,63.64h-1.96s-.05-.06-.08-.08c.06-.02.12-.02.17-.05.29-.17.41-.44.41-.77,0-1.55,0-3.09,0-4.64,0-.34-.17-.52-.46-.65h1.76c-.48.14-.52.43-.52.78.01,1.41,0,2.83,0,4.24q0,.8.67,1.17Z"/>
          <path class="cls-1" d="m38.25,63.62h-1.75c.41-.31.46-.7.46-1.13,0-1.41-.01-2.83,0-4.24,0-.36-.05-.65-.44-.79h1.61c-.5.15-.39.57-.39.94,0,1.41.01,2.83,0,4.24,0,.43.07.79.51.98Z"/>
          <path class="cls-1" d="m36.96,65.51c-.26,0-.33-.12-.28-.34.02-.12.02-.24.05-.36.13-.57.38-.71.96-.57.19.04.24.15.16.3-.14.27-.29.54-.47.77-.09.11-.27.14-.41.2Z"/>
        </g>
      </g>
    </g>
  </g>
</svg>