<?xml version="1.0" encoding="UTF-8"?>
<svg id="Capa_2" data-name="Capa 2" xmlns="http://www.w3.org/2000/svg" viewBox="0 0 208.56 212.58">
  <defs>
    <style>
      .cls-1 {
        fill: #f35d00;
      }

      .cls-2 {
        fill: #2a2a2b;
      }
    </style>
  </defs>
  <g id="PHONE">
    <g id="P_-_INICIO" data-name="P - INICIO">
      <path class="cls-1" d="m112.12,134.26c-28.78,0-57.55,0-86.33.01-1.26,0-2.06-.46-2.58-1.62-.63-1.43-1.11-2.88-1.06-4.46.06-1.75.03-3.51.22-5.25.27-2.47,1.84-3.77,4.31-3.77,32.61.04,65.23.1,97.84.13,21.37.02,42.73.02,64.1.03,1.92,0,2.41-.49,2.42-2.44,0-.62-.03-1.25-.12-1.86-.15-1.02-.57-1.39-1.58-1.47-.3-.02-.59,0-.89,0-52.64,0-105.28,0-157.92,0-1.77,0-3.58-.03-5.3-.38-2.26-.46-3.07-1.71-3.07-4.02,0-7.47.02-14.94-.01-22.41-.01-2.41,1.41-3.88,3.14-5.18.27-.21.74-.21,1.11-.22,1.52-.02,3.04.01,4.55-.02,1.74-.04,3.51.24,5.2-.47.33-.14.76-.06,1.15-.06,53.47,0,106.95,0,160.42,0,.71,0,1.43.03,2.14-.02,1.32-.09,2.17.57,2.67,1.69.75,1.67,1.2,3.39.99,5.27-.13,1.18.12,2.4-.07,3.56-.21,1.29-.64,2.57-1.12,3.8-.4,1.04-1.28,1.45-2.43,1.43-2.74-.05-5.47-.03-8.21-.04-25.83-.01-51.66-.03-77.49-.03-26.04,0-52.08,0-78.11,0-.33,0-.66-.02-.98.02-1.03.12-1.42.54-1.45,1.56-.03.83-.02,1.67,0,2.5.02,1.01.52,1.52,1.55,1.53,1.99.02,3.99-.01,5.98,0,7.5.03,15,.09,22.49.08,44.75-.02,89.51-.06,134.26-.09,3.65,0,5.46,1.63,5.87,5.33.12,1.06.17,2.13.17,3.2.02,6.13-.09,12.26.07,18.39.07,2.77-1.49,4.27-4.14,5.11-.77.24-1.64.21-2.47.21-28.45,0-56.9,0-85.34,0Z"/>
      <path class="cls-2" d="m113.37,157.04c-28.51,0-57.02-.01-85.52.02-2.64,0-4.92-.76-6.82-2.51-1.59-1.47-2.57-3.35-2.75-5.53-.2-2.42-.14-4.83,1.19-6.99,1.73-2.81,4.19-4.56,7.55-4.56,57.52-.02,115.04-.02,172.56,0,3.42,0,5.83,1.76,7.51,4.6,2.31,3.9,1.88,8.72-1.13,12.08-1.76,1.95-3.99,2.92-6.71,2.92-19.85-.04-39.7-.03-59.54-.03-8.78,0-17.56,0-26.34,0v.02Z"/>
      <path class="cls-2" d="m29.58,51.75c3.05-.09,6.1-.13,9.14-.29,4.89-.26,9.78-.49,14.65-.93,4.84-.44,9.65-1.16,14.48-1.7,10.55-1.17,20.86-3.53,31.12-6.17,5.37-1.38,10.74-2.82,15.97-4.64,6.86-2.39,13.6-5.12,20.34-7.83,3.82-1.54,7.63-3.15,11.29-5.04,5.66-2.93,11.21-6.06,16.74-9.23,3.85-2.21,7.64-4.54,11.34-6.98,3.53-2.33,6.92-4.88,10.38-7.33,5.04-3.56,9.65-.71,11.72,3.46,2.06,4.17,1.05,9.23-2.44,12.27-1.67,1.45-3.58,2.62-5.43,3.85-5.92,3.93-11.81,7.9-17.81,11.7-3.35,2.12-6.87,3.98-10.37,5.86-3.69,1.98-7.39,3.95-11.17,5.74-8.58,4.06-17.27,7.84-26.29,10.9-8.72,2.96-17.54,5.5-26.47,7.69-5.78,1.42-11.65,2.49-17.52,3.48-5.69.96-11.43,1.69-17.16,2.36-4.74.55-9.5.92-14.26,1.26-3.23.23-6.47.26-9.7.38-3.2.11-6.41.16-9.61.32-6.62.32-9.95-5.11-9.85-9.47.03-1.45.62-2.96,1.24-4.3.71-1.53,1.43-3.12,2.92-4.18,1.13-.8,2.34-1.25,3.72-1.27,1.01,0,2.02,0,3.04,0,0,.03,0,.06,0,.09Z"/>
      <path class="cls-2" d="m0,132.87c0-16.57,0-33.14,0-49.71,0-.12,0-.24,0-.36,0-1.63.03-1.77,1.84-1.82,2.62-.07,5.24-.02,7.85-.02,1.7,0,3.39-.01,5.09,0,1.39.02,1.59.23,1.59,1.62,0,33.59,0,67.17,0,100.76,0,1.7-.45,2.15-2.17,2.16-3.87,0-7.73,0-11.6,0-2.24,0-2.61-.37-2.61-2.66,0-16.66,0-33.32,0-49.98h0Z"/>
      <path d="m.15,202.22c0-2.97,0-5.94,0-8.92,0-1.5.41-1.94,1.89-1.94,4.13-.01,8.26,0,12.39.01,1.42,0,1.79.41,1.79,1.82,0,6.03,0,12.07,0,18.1,0,1.12-.16,1.28-1.3,1.28-4.49,0-8.98,0-13.46,0-1.19,0-1.32-.13-1.32-1.35,0-3,0-6,0-9.01Z"/>
      <path d="m173.36,202.13c0-1.66.05-3.33-.01-4.99-.11-2.89.85-3.54,3.69-3.82.66-.07,1.37.06,2.02.24,1.63.44,2.16,1.2,2.16,2.89,0,3.48-.04,6.95.01,10.43.05,3.14-1.27,3.56-3.8,3.65-.76.03-1.54-.14-2.29-.3-1.19-.26-1.76-.98-1.78-2.21-.03-1.96,0-3.92,0-5.88h0Zm4.87-.09s-.01,0-.02,0c0-1.99.02-3.98,0-5.98-.01-.75-.48-1.12-1.14-.97-.78.17-.79.83-.79,1.41-.03,1.81-.01,3.63-.01,5.44,0,1.87-.02,3.75.02,5.62.01.62.09,1.27,1,1.28.93,0,.95-.62.96-1.27,0-1.84,0-3.69,0-5.53Z"/>
      <path d="m112.48,201.97c0,1.93.02,3.86,0,5.79-.02,1.66-.8,2.55-2.48,2.64-1.11.06-2.25-.01-3.36-.17-1.35-.19-1.98-.92-1.99-2.31-.03-3.89-.05-7.78,0-11.67.03-1.94,1.11-2.79,3.59-2.93.67-.04,1.38.02,2.02.21,1.3.38,2.33.92,2.25,2.92-.08,1.84-.02,3.68-.02,5.52h-.01Zm-4.83-.07c0,1.99,0,3.99,0,5.98,0,.56.2.9.8.96.61.05.98-.19,1.09-.78.05-.29.06-.59.06-.89,0-3,0-6.01,0-9.01,0-.68.03-1.37-.03-2.05-.05-.62-.34-1.09-1.08-1.03-.68.06-.86.49-.85,1.11.02,1.9,0,3.81,0,5.71Z"/>
      <path d="m77.68,201.93c0,1.96.03,3.93,0,5.89-.03,1.64-.78,2.48-2.44,2.58-1.09.06-2.2,0-3.28-.15-1.46-.2-2.07-.84-2.09-2.3-.05-3.9-.07-7.8,0-11.69.04-1.92.96-2.74,2.88-2.76,1.09-.01,2.19.12,3.26.32,1.21.23,1.66.83,1.68,2.06.03,2.02,0,4.05,0,6.07,0,0-.01,0-.02,0Zm-2.88.04c0-.77,0-1.55,0-2.32,0-1.16.02-2.32-.01-3.48-.02-.62-.29-1.11-1.02-1.08-.61.02-.92.36-.92.96,0,3.96,0,7.92,0,11.87,0,.67.37.94,1.03.92.85-.03.92-.63.92-1.25.02-1.87,0-3.75,0-5.62Z"/>
      <path d="m123.01,201.91c0-1.9,0-3.81,0-5.71,0-1.34.42-1.93,1.66-2.44,1.63-.67,3.24-.61,4.83.09.9.4,1.39,1.06,1.37,2.08-.02,1.34-.02,2.68,0,4.01,0,.6-.22.84-.83.87-2.16.09-2.18.08-2.16-2.1,0-.89-.01-1.78-.02-2.68,0-.64-.37-.94-.95-.93-.61.01-.88.38-.88.99,0,3.93,0,7.85,0,11.78,0,.62.29.94.92.94.63,0,.91-.34.91-.95,0-.65-.02-1.31.03-1.96.04-.66-.06-1.17-.69-1.59-.28-.19-.44-.78-.38-1.15.03-.23.56-.51.88-.54.82-.08,1.67-.09,2.49,0,.25.03.64.46.65.72.06,1.66.04,3.33.01,4.99-.01.79-.46,1.33-1.16,1.66-1.73.81-3.48.88-5.25.12-.95-.41-1.44-1.1-1.43-2.14,0-2.02,0-4.04,0-6.07h0Z"/>
      <path class="cls-2" d="m64.11,178.19c0,1.73-.02,3.39,0,5.05.02.97.64,1.6,1.62,2.17h-5.47c1.52-1.12,1.53-2.58,1.52-4.09-.03-3.66-.02-7.32,0-10.98,0-1.24-.3-2.29-1.41-2.98.04-.07.07-.15.1-.15,2.7.06,5.42-.02,8.1.24,2.64.25,4.23,2.77,3.37,5.29-.49,1.43-1.41,2.72-2.22,4.02-.32.52-.36.81.05,1.29,1.47,1.71,2.89,3.48,4.33,5.22,1.01,1.22,2.28,1.96,3.92,2.03-1.05.91-2.87.98-4.17.16-1.66-1.05-2.9-2.53-4.04-4.1-.3-.41-.61-.81-.87-1.24-1.1-1.84-2.73-2.32-4.83-1.92Zm-.03-5.95c0,.74,0,1.49,0,2.23,0,2.32.34,2.61,2.67,2.29.12-.02.23-.04.35-.06,1.46-.18,2.32-.84,2.51-2.31.14-1.12.15-2.33-.12-3.41-.55-2.2-2.34-3.29-4.57-3.06-.57.06-.85.32-.84.92.02,1.13,0,2.26,0,3.39Z"/>
      <path d="m154.99,201.95c0-1.9,0-3.8,0-5.71,0-1.35.4-1.94,1.63-2.46,1.65-.7,3.29-.64,4.91.1.86.39,1.34,1.02,1.32,2.02-.03,1.34-.03,2.68,0,4.01.01.64-.2.9-.87.91-2.14.05-2.14.07-2.13-2.04,0-.89,0-1.78,0-2.67,0-.66-.34-1.02-.98-.99-.59.02-.89.38-.89,1,0,3.92,0,7.85,0,11.77,0,.62.3.93.92.94.64.01.93-.33.93-.93.01-1.16,0-2.32,0-3.48,0-1.01.24-1.27,1.25-1.28,2.16-.02,1.71-.01,1.73,1.69.02,1.1,0,2.2.01,3.3.02.91-.41,1.52-1.21,1.9-1.61.75-3.26.83-4.92.21-1.26-.47-1.72-1.14-1.72-2.5,0-1.93,0-3.86,0-5.8Z"/>
      <path d="m199.78,197.17c0,.24,0,.48,0,.71,0,1.45-.03,1.49-1.5,1.49-1.25,0-1.49-.23-1.52-1.51-.01-.48.06-.96-.02-1.42-.08-.42-.24-.91-.53-1.18-.18-.16-.92-.07-1.01.11-.18.37-.19.89-.11,1.31.35,1.78,1.23,3.33,2.23,4.81.97,1.43,1.84,2.91,2.18,4.64.05.23.09.47.12.7.33,2.36-.36,3.34-2.74,3.75-1.28.22-2.55.06-3.73-.54-.81-.41-1.27-1.05-1.24-1.99.02-.8,0-1.61.03-2.41.03-.61.25-1.09.98-1.15,1.03-.08,1.75.22,1.87.95.12.7.03,1.43.14,2.13.06.42.23.92.53,1.18.18.15.88.04,1.02-.17.2-.3.2-.83.11-1.21-.59-2.36-1.75-4.46-3.05-6.49-.97-1.5-1.54-3.13-1.62-4.92-.04-.98.4-1.67,1.26-2.06,1.78-.81,3.57-.78,5.34.04.83.39,1.24,1.08,1.26,1.99,0,.42,0,.83,0,1.25Z"/>
      <path class="cls-2" d="m167.97,185.98c-5.2,0-10.15-4.6-10.13-9.42.02-5.9,3.75-9.72,9.54-9.78,5.31-.06,9.91,4.65,9.88,10.11-.03,4.99-4.22,9.09-9.29,9.1Zm-7.83-10.92c-.05,3.51.97,5.72,2.67,7.65,3.23,3.68,9.12,2.91,11.34-1.47,1.74-3.42,1.05-8.3-1.57-11.22-2.47-2.74-6.67-3.16-9.56-.87-2.17,1.72-2.81,4.14-2.88,5.91Z"/>
      <path d="m.82,73.03c1.41-2.19,3-4.31,4.21-6.63,1.2-2.31,2.02-4.82,3.06-7.39.22.5.52.94.62,1.42.91,4.26,2.84,8.02,5.49,11.44.26.34.49.71.79,1.16H.82Z"/>
      <path class="cls-2" d="m136.35,181.29c.32,1.28.12,2.4-.33,3.48-.09.21-.37.43-.59.47-2.85.5-5.71.95-8.58.3-5.28-1.2-8.01-5.97-6.62-11.42.82-3.23,2.4-5.88,5.84-6.77,1.44-.37,3-.46,4.49-.42,1.92.04,3.84.33,5.9.53-.16,1.54-.32,3.04-.48,4.54-.06,0-.11.02-.17.03-.09-.22-.2-.44-.28-.67-.75-2.22-2.38-3.36-4.63-3.58-3.76-.37-6.66,1.14-8.02,4.04-2.47,5.26,1.04,12.11,6.77,13.04,2.52.41,4.85.06,6.3-2.97.08-.18.22-.33.4-.58Z"/>
      <path class="cls-2" d="m45.37,168.3v7.03c1.87-.14,3.72-.28,5.63-.43-.14,1.11-.27,2.13-.4,3.17-.15-.06-.23-.08-.24-.11-.46-1.57-1.67-1.72-3.03-1.65-.65.04-1.3,0-2.08,0,0,.68,0,1.38,0,2.09,0,1.28-.02,2.55-.03,3.83,0,.81.3,1.42.99,1.87,1.73,1.11,3.48.91,4.91-.57.18-.19.36-.39.64-.69-.03.28-.04.44-.07.59q-.44,2.19-2.65,2.19c-2.37,0-4.75,0-7.39,0,1.34-.87,1.37-2.02,1.37-3.19,0-4.14-.03-8.27.02-12.41.01-1.19-.16-2.13-1.51-2.39-.12-.02-.22-.15-.48-.34h10.3c-.17.94-.33,1.88-.5,2.83-.09-.03-.18-.03-.2-.07-.67-1.61-.86-1.73-2.66-1.74-.85,0-1.71,0-2.61,0Z"/>
      <path class="cls-2" d="m88.74,186.03c-.34-.65-.67-1.17-.9-1.73-1.94-4.68-3.87-9.37-5.78-14.06-.54-1.32-1.1-2.58-2.74-2.87h5.72c0,.08.02.16,0,.17-1.19.77-1.2.77-.7,2.11,1.45,3.85,2.92,7.7,4.38,11.55.08.22.18.43.34.81.19-.26.36-.41.43-.6,1.6-3.95,3.21-7.9,4.77-11.87.44-1.13.33-1.29-.78-2.06h3.7c-.42.74-.99,1.55-1.38,2.44-2.23,5.07-4.41,10.17-6.62,15.25-.1.24-.24.47-.44.87Z"/>
      <path class="cls-2" d="m193.61,170.38c-.21-.42-.39-.86-.64-1.25-.93-1.49-2.84-1.88-4.28-.9-1.43.97-1.76,2.84-.57,4.2,1.23,1.4,2.69,2.6,3.99,3.95.79.83,1.6,1.7,2.15,2.68.71,1.27.53,2.65-.24,3.9-1.34,2.17-4.6,3.49-7.09,2.87-1.63-.41-2.13-1.19-1.8-2.86.09-.45.21-.9.36-1.56.12.27.16.33.17.39.19,1.31.69,2.4,2.07,2.84,1.54.49,2.95.21,4.15-.86,1.16-1.03,1.29-2.36.27-3.56-1.5-1.77-3.11-3.44-4.64-5.18-.61-.69-1.23-1.39-1.68-2.17-1.06-1.84-.61-3.62,1.18-4.79,1.94-1.26,4.08-1.54,6.32-1.16.49.08.81.33.74.91-.1.85-.18,1.69-.26,2.54l-.19.02Z"/>
      <path d="m26.77,195.26v5.92c.57,0,1.1,0,1.63,0,.47-.01.96.01.99.62.04.6-.26,1.06-.9,1.12-.58.06-1.18.01-1.88.01,0,1.74.01,3.4,0,5.05-.02,2.51.35,2.5-2.56,2.46-.06,0-.12-.02-.24-.05v-16.82c1.77,0,3.52-.02,5.27.03.24,0,.46.41.7.63-.36.35-.66.87-1.09,1.01-.56.17-1.22.04-1.91.04Z"/>
      <path class="cls-2" d="m23.85,181.4c.13.33.2.45.22.59.34,1.81,1.1,2.56,2.91,2.84,1.44.23,3.22-.61,3.87-1.87.47-.9.41-1.81-.22-2.6-1.02-1.28-2.08-2.52-3.17-3.73-.83-.93-1.76-1.77-2.6-2.7-2.04-2.25-1.56-4.82,1.12-6.25,1.78-.95,3.67-1.12,5.62-.8.57.09.91.37.8,1.04-.13.82-.18,1.64-.43,2.5-.13-.28-.26-.56-.4-.84-.58-1.19-1.47-1.95-2.85-1.9-1.21.04-2.18.57-2.7,1.71-.59,1.27-.22,2.42.68,3.35,1.33,1.36,2.77,2.6,4.12,3.95.62.62,1.22,1.31,1.66,2.06.83,1.43.71,2.89-.2,4.28-1.39,2.12-4.59,3.37-7.05,2.76-1.58-.4-2.15-1.31-1.78-2.9.1-.43.22-.86.39-1.51Z"/>
      <path d="m53.61,193.49c.65,0,1.24-.04,1.82.01.8.07.97.65.98,1.34,0,2.58,0,5.17,0,7.75,0,1.98,0,3.97,0,6.07.71,0,1.36-.02,2,0,.6.02,1.19.19,1.18.92,0,.76-.59.84-1.21.83-1.57-.01-3.14,0-4.78,0v-16.93Z"/>
      <path d="m88.43,193.57c.56-.03,1.14-.17,1.67-.05.37.08.76.46.97.81.18.3.15.75.15,1.13.01,4.04.01,8.09.01,12.13,0,.32,0,.64,0,1.1.7,0,1.35-.07,1.98.03.39.06.87.28,1.08.58.41.59.09,1.13-.63,1.14-1.72.02-3.44,0-5.23,0v-16.86Z"/>
      <path d="m144.32,193.5c.04.46.09.84.09,1.22.01,4.75.03,9.51,0,14.26,0,.46-.2,1.26-.42,1.31-.69.14-1.47.08-2.15-.1-.22-.06-.37-.76-.38-1.17-.03-3.3-.02-6.6-.02-9.89,0-1.4-.01-2.79,0-4.19.01-1.19.22-1.4,1.4-1.43.44-.01.89,0,1.47,0Z"/>
      <path d="m42.8,193.54c.02.37.05.69.05,1,0,4.84.02,9.69,0,14.53,0,.44-.25,1.22-.47,1.25-.7.1-1.44-.04-2.15-.18-.12-.02-.23-.46-.23-.7-.01-4.99,0-9.99-.02-14.98,0-.6.29-.89.84-.92.64-.04,1.29,0,1.99,0Z"/>
      <path class="cls-2" d="m144.9,167.42h4.8c-1.13.44-1.21,1.35-1.2,2.39.04,4.14.05,8.27,0,12.41-.01,1.52.03,2.91,1.9,3.34h-5.64c-.07-.07-.14-.14-.2-.2.18-.08.36-.14.53-.24.78-.48,1.12-1.22,1.12-2.1.01-4.58,0-9.16.01-13.74,0-.96-.57-1.43-1.33-1.85Z"/>
      <path class="cls-2" d="m106.7,185.46c1.06-.78,1.33-1.76,1.32-2.88-.01-4.16-.03-8.33,0-12.49,0-1.12.01-2.15-1.27-2.64h4.74c-1.16.42-1.2,1.36-1.19,2.39.03,4.31.04,8.62,0,12.93,0,1.22.24,2.19,1.52,2.69h-5.13Z"/>
      <path d="m107.15,190.25c.11-.59.18-1.03.29-1.46.36-1.45,1.52-2.02,2.91-1.39.18.08.35.62.26.81-.37.77-.73,1.61-1.33,2.17-.41.38-1.21.36-1.85.45-.07,0-.21-.45-.27-.59Z"/>
    </g>
  </g>
</svg>