<?xml version="1.0" encoding="UTF-8"?>
<svg id="Capa_2" data-name="Capa 2" xmlns="http://www.w3.org/2000/svg" viewBox="0 0 110.8 97.92">
  <defs>
    <style>
      .cls-1 {
        fill: #f35d00;
        stroke: #f35d00;
        stroke-miterlimit: 10;
      }
    </style>
  </defs>
  <g id="PHONE">
    <g id="P_-_INICIO" data-name="P - INICIO">
      <g>
        <path class="cls-1" d="m55.67,22.39c-14.06,0-28.13.06-42.19-.02-7.92-.05-12.82-4.2-12.98-10.67C.34,5,5.45.56,13.72.54c27.88-.06,55.77-.06,83.65,0,7.96.02,12.78,4.13,12.92,10.66.15,6.82-4.8,11.12-13.16,11.16-13.82.07-27.64.02-41.46.02Z"/>
        <path class="cls-1" d="m55.08,38.03c14.06,0,28.13-.05,42.19.02,8.01.04,12.81,4.05,13.01,10.56.21,6.84-4.73,11.24-13.05,11.26-27.88.06-55.77.06-83.65,0-7.95-.02-12.85-4.12-13.07-10.57-.23-6.71,4.88-11.2,13.11-11.25,13.82-.08,27.64-.02,41.46-.02Z"/>
        <path class="cls-1" d="m55.82,75.53c13.82,0,27.64-.06,41.46.02,8.01.04,12.81,4.06,13,10.57.2,6.84-4.74,11.23-13.07,11.25-27.88.06-55.77.06-83.65,0-7.94-.02-12.85-4.13-13.06-10.58-.22-6.71,4.89-11.2,13.12-11.24,14.06-.08,28.13-.02,42.19-.02Z"/>
      </g>
    </g>
  </g>
</svg>