<?xml version="1.0" encoding="UTF-8"?>
<svg id="Capa_2" data-name="Capa 2" xmlns="http://www.w3.org/2000/svg" viewBox="0 0 160.86 163.96">
  <defs>
    <style>
      .cls-1 {
        fill: #f05d00;
      }

      .cls-2 {
        fill: #2a2a2b;
      }
    </style>
  </defs>
  <g id="INICIO">
    <path class="cls-1" d="m86.48,103.56c-22.19,0-44.39,0-66.58,0-.97,0-1.59-.35-1.99-1.25-.49-1.1-.86-2.22-.82-3.44.04-1.35.02-2.71.17-4.05.21-1.91,1.42-2.91,3.33-2.91,25.15.03,50.31.07,75.46.1,16.48.02,32.96.01,49.44.02,1.48,0,1.86-.38,1.87-1.88,0-.48-.02-.96-.09-1.44-.11-.79-.44-1.07-1.22-1.13-.23-.02-.46,0-.69,0-40.6,0-81.2,0-121.8,0-1.37,0-2.76-.03-4.09-.29-1.74-.35-2.37-1.32-2.37-3.1,0-5.76.02-11.52,0-17.28,0-1.86,1.09-2.99,2.42-3.99.21-.16.57-.16.86-.17,1.17-.02,2.34.01,3.51-.02,1.34-.03,2.7.18,4.01-.36.26-.11.59-.04.89-.04,41.24,0,82.49,0,123.73,0,.55,0,1.1.02,1.65-.02,1.01-.07,1.67.44,2.06,1.3.58,1.29.93,2.61.76,4.06-.1.91.09,1.85-.05,2.75-.16,1-.5,1.98-.86,2.93-.31.81-.99,1.12-1.87,1.1-2.11-.04-4.22-.03-6.33-.03-19.92,0-39.84-.02-59.77-.02-20.08,0-40.17,0-60.25,0-.25,0-.51-.01-.76.02-.79.09-1.1.41-1.12,1.2-.02.64-.02,1.29,0,1.93.02.78.4,1.18,1.2,1.18,1.54.02,3.08,0,4.61,0,5.78.02,11.57.07,17.35.06,34.52-.02,69.04-.05,103.56-.07,2.81,0,4.21,1.26,4.52,4.11.09.82.13,1.65.13,2.47.02,4.73-.07,9.46.05,14.18.05,2.14-1.15,3.3-3.19,3.94-.59.19-1.27.16-1.91.16-21.94,0-43.88,0-65.83,0Z"/>
    <path class="cls-2" d="m87.44,121.12c-21.99,0-43.98-.01-65.96.02-2.04,0-3.79-.58-5.26-1.94-1.23-1.13-1.98-2.58-2.12-4.27-.15-1.86-.11-3.73.91-5.39,1.33-2.17,3.23-3.51,5.83-3.52,44.37-.02,88.73-.01,133.1,0,2.64,0,4.5,1.36,5.79,3.55,1.78,3.01,1.45,6.73-.87,9.31-1.35,1.51-3.08,2.25-5.17,2.25-15.31-.03-30.62-.02-45.93-.02-6.77,0-13.54,0-20.31,0v.02Z"/>
    <path class="cls-2" d="m22.82,39.91c2.35-.07,4.7-.1,7.05-.22,3.77-.2,7.54-.37,11.3-.72,3.73-.34,7.44-.9,11.16-1.31,8.14-.9,16.09-2.72,24-4.76,4.14-1.06,8.28-2.17,12.32-3.58,5.29-1.84,10.49-3.95,15.68-6.04,2.95-1.19,5.89-2.43,8.71-3.89,4.36-2.26,8.65-4.67,12.91-7.12,2.97-1.7,5.89-3.5,8.75-5.39,2.72-1.8,5.33-3.77,8-5.65,3.89-2.75,7.45-.55,9.04,2.67,1.59,3.21.81,7.12-1.88,9.46-1.28,1.12-2.76,2.02-4.19,2.97-4.56,3.03-9.11,6.1-13.74,9.03-2.58,1.64-5.3,3.07-8,4.52-2.84,1.53-5.7,3.05-8.61,4.43-6.62,3.13-13.32,6.05-20.27,8.41-6.72,2.28-13.53,4.25-20.42,5.93-4.46,1.09-8.99,1.92-13.51,2.68-4.39.74-8.81,1.31-13.24,1.82-3.65.43-7.33.71-11,.97-2.49.18-4.99.2-7.48.29-2.47.08-4.95.12-7.41.24-5.11.25-7.68-3.94-7.6-7.3.03-1.12.48-2.28.96-3.32.55-1.18,1.1-2.41,2.25-3.22.88-.62,1.81-.97,2.87-.98.78,0,1.56,0,2.34,0,0,.02,0,.05,0,.07Z"/>
    <path class="cls-2" d="m0,102.48c0-12.78,0-25.56,0-38.34,0-.09,0-.18,0-.28,0-1.26.02-1.36,1.42-1.4,2.02-.06,4.04-.01,6.06-.01,1.31,0,2.62-.01,3.92,0,1.07.01,1.22.18,1.22,1.25,0,25.9,0,51.81,0,77.71,0,1.31-.35,1.66-1.67,1.66-2.98,0-5.97,0-8.95,0-1.73,0-2.01-.29-2.01-2.05C0,128.18,0,115.33,0,102.48h0Z"/>
    <path d="m.12,155.97c0-2.29,0-4.58,0-6.88,0-1.16.32-1.5,1.46-1.5,3.19,0,6.37,0,9.56,0,1.09,0,1.38.31,1.38,1.4,0,4.65,0,9.31,0,13.96,0,.87-.12.99-1,.99-3.46,0-6.92,0-10.38,0-.92,0-1.02-.1-1.02-1.04,0-2.32,0-4.63,0-6.95Z"/>
    <path d="m133.71,155.9c0-1.28.04-2.57,0-3.85-.09-2.23.65-2.73,2.85-2.94.51-.05,1.06.05,1.56.18,1.26.34,1.67.92,1.67,2.23,0,2.68-.03,5.36.01,8.04.04,2.42-.98,2.75-2.93,2.82-.58.02-1.18-.11-1.76-.23-.92-.2-1.36-.76-1.37-1.71-.02-1.51,0-3.02,0-4.54h0Zm3.76-.07s-.01,0-.02,0c0-1.54.01-3.07,0-4.61,0-.58-.37-.86-.88-.75-.6.13-.61.64-.61,1.09-.02,1.4,0,2.8,0,4.2,0,1.44-.02,2.89.01,4.33,0,.48.07.98.77.99.72,0,.74-.48.74-.98,0-1.42,0-2.84,0-4.27Z"/>
    <path d="m86.76,155.78c0,1.49.01,2.98,0,4.47-.02,1.28-.62,1.96-1.91,2.04-.86.05-1.74-.01-2.59-.13-1.05-.15-1.53-.71-1.53-1.78-.03-3-.04-6,0-9,.02-1.5.86-2.15,2.77-2.26.52-.03,1.06.02,1.56.16,1.01.29,1.8.71,1.73,2.25-.06,1.42-.01,2.84-.01,4.26h0Zm-3.73-.05c0,1.54,0,3.07,0,4.61,0,.43.15.7.62.74.47.04.76-.14.84-.6.04-.22.05-.46.05-.68,0-2.32,0-4.63,0-6.95,0-.53.02-1.06-.02-1.58-.04-.48-.26-.84-.83-.79-.53.04-.66.38-.66.86.01,1.47,0,2.94,0,4.4Z"/>
    <path d="m59.91,155.75c0,1.51.02,3.03,0,4.54-.02,1.27-.61,1.91-1.88,1.99-.84.05-1.7,0-2.53-.12-1.12-.16-1.6-.65-1.61-1.78-.04-3.01-.05-6.01,0-9.02.03-1.48.74-2.12,2.22-2.13.84,0,1.69.09,2.52.25.93.18,1.28.64,1.29,1.59.02,1.56,0,3.12,0,4.68,0,0,0,0-.01,0Zm-2.22.03c0-.6,0-1.19,0-1.79,0-.9.02-1.79-.01-2.68-.01-.48-.22-.85-.79-.84-.47.01-.71.28-.71.74,0,3.05,0,6.1,0,9.16,0,.52.29.73.79.71.65-.02.71-.49.71-.96.01-1.45,0-2.89,0-4.34Z"/>
    <path d="m94.88,155.73c0-1.47,0-2.94,0-4.4,0-1.03.33-1.49,1.28-1.88,1.25-.52,2.5-.47,3.73.07.69.3,1.07.81,1.06,1.6-.02,1.03-.02,2.06,0,3.1,0,.46-.17.65-.64.67-1.67.07-1.68.06-1.67-1.62,0-.69-.01-1.38-.01-2.06,0-.49-.28-.72-.73-.71-.47,0-.68.29-.68.76,0,3.03,0,6.06,0,9.08,0,.48.22.73.71.73.49,0,.7-.26.7-.73,0-.5-.01-1.01.02-1.51.03-.51-.05-.9-.53-1.22-.21-.14-.34-.6-.3-.88.03-.18.43-.39.68-.42.64-.06,1.29-.07,1.92,0,.19.02.49.36.5.55.04,1.28.03,2.57.01,3.85,0,.61-.36,1.03-.89,1.28-1.33.62-2.68.68-4.05.09-.73-.31-1.11-.85-1.11-1.65,0-1.56,0-3.12,0-4.68h0Z"/>
    <path class="cls-2" d="m49.45,137.43c0,1.33-.02,2.62,0,3.9.01.75.49,1.23,1.25,1.67h-4.22c1.17-.86,1.18-1.99,1.17-3.16-.02-2.82-.01-5.64,0-8.47,0-.95-.23-1.77-1.09-2.29.03-.05.05-.12.07-.12,2.08.05,4.18-.02,6.25.18,2.04.2,3.26,2.14,2.6,4.08-.38,1.1-1.08,2.1-1.71,3.1-.25.4-.28.62.04.99,1.14,1.32,2.23,2.68,3.34,4.02.78.94,1.76,1.51,3.03,1.56-.81.71-2.21.76-3.21.12-1.28-.81-2.24-1.95-3.12-3.16-.23-.32-.47-.62-.67-.95-.85-1.42-2.11-1.79-3.72-1.48Zm-.02-4.59c0,.57,0,1.15,0,1.72,0,1.79.26,2.01,2.06,1.77.09-.01.18-.03.27-.04,1.12-.14,1.79-.65,1.93-1.78.11-.86.12-1.79-.09-2.63-.43-1.7-1.81-2.54-3.53-2.36-.44.05-.66.25-.65.71.01.87,0,1.74,0,2.62Z"/>
    <path d="m119.54,155.76c0-1.47,0-2.93,0-4.4,0-1.04.31-1.5,1.26-1.9,1.28-.54,2.54-.49,3.79.07.66.3,1.03.79,1.02,1.56-.02,1.03-.02,2.06,0,3.09.01.49-.15.69-.67.7-1.65.04-1.65.05-1.64-1.57,0-.69,0-1.38,0-2.06,0-.51-.26-.78-.76-.76-.46.02-.69.29-.68.77,0,3.03,0,6.05,0,9.08,0,.48.23.72.71.73.49,0,.72-.26.72-.72,0-.89,0-1.79,0-2.68,0-.78.18-.98.97-.98,1.67-.02,1.32,0,1.34,1.31.01.85,0,1.7,0,2.54.01.7-.32,1.17-.94,1.46-1.24.58-2.51.64-3.8.16-.97-.36-1.32-.88-1.33-1.92,0-1.49,0-2.98,0-4.47Z"/>
    <path d="m154.09,152.07c0,.18,0,.37,0,.55,0,1.12-.02,1.15-1.16,1.15-.96,0-1.15-.18-1.17-1.17,0-.37.05-.74-.02-1.1-.06-.33-.18-.7-.41-.91-.14-.12-.71-.05-.78.08-.14.28-.15.68-.08,1.01.27,1.37.95,2.57,1.72,3.71.75,1.1,1.42,2.24,1.68,3.58.03.18.07.36.09.54.25,1.82-.28,2.58-2.11,2.89-.99.17-1.97.05-2.88-.42-.62-.32-.98-.81-.96-1.54.02-.62,0-1.24.02-1.86.02-.47.19-.84.76-.89.8-.06,1.35.17,1.44.74.09.54.03,1.1.11,1.64.05.33.18.71.41.91.14.12.68.03.78-.13.15-.23.16-.64.08-.93-.45-1.82-1.35-3.44-2.35-5-.74-1.16-1.19-2.41-1.25-3.8-.03-.76.31-1.29.97-1.59,1.37-.62,2.75-.6,4.12.03.64.3.96.83.97,1.54,0,.32,0,.64,0,.96Z"/>
    <path class="cls-2" d="m129.56,143.44c-4.01,0-7.83-3.55-7.82-7.27.02-4.55,2.9-7.5,7.36-7.55,4.1-.04,7.64,3.58,7.62,7.8-.02,3.85-3.25,7.01-7.17,7.02Zm-6.04-8.42c-.04,2.7.75,4.41,2.06,5.9,2.49,2.84,7.03,2.24,8.75-1.13,1.34-2.64.81-6.41-1.21-8.65-1.91-2.11-5.14-2.44-7.37-.67-1.67,1.32-2.17,3.19-2.22,4.56Z"/>
    <path d="m.63,56.32c1.09-1.69,2.32-3.32,3.25-5.11.93-1.78,1.56-3.72,2.36-5.7.17.38.4.72.48,1.1.7,3.28,2.19,6.18,4.23,8.82.2.26.38.55.61.89H.63Z"/>
    <path class="cls-2" d="m105.17,139.83c.25.99.09,1.85-.25,2.68-.07.16-.28.33-.45.36-2.19.39-4.41.73-6.62.23-4.07-.93-6.18-4.61-5.11-8.81.64-2.49,1.85-4.54,4.51-5.22,1.11-.29,2.31-.35,3.47-.33,1.48.03,2.96.25,4.55.41-.13,1.19-.25,2.35-.37,3.5-.04,0-.09.01-.13.02-.07-.17-.16-.34-.22-.52-.58-1.71-1.84-2.59-3.57-2.76-2.9-.28-5.13.88-6.19,3.12-1.91,4.06.8,9.34,5.22,10.06,1.94.31,3.74.04,4.86-2.29.07-.14.17-.25.31-.45Z"/>
    <path class="cls-2" d="m34.99,129.81v5.42c1.45-.11,2.87-.22,4.34-.33-.11.86-.21,1.64-.31,2.44-.11-.05-.18-.06-.19-.08-.35-1.21-1.29-1.33-2.34-1.27-.5.03-1,0-1.61,0,0,.53,0,1.07,0,1.61,0,.99-.01,1.97-.03,2.96,0,.62.23,1.1.77,1.44,1.33.85,2.69.7,3.79-.44.14-.15.28-.3.49-.53-.03.22-.03.34-.06.45q-.34,1.69-2.05,1.69c-1.83,0-3.66,0-5.7,0,1.04-.67,1.06-1.56,1.06-2.46,0-3.19-.02-6.38.01-9.57.01-.92-.12-1.64-1.17-1.85-.09-.02-.17-.12-.37-.26h7.94c-.13.73-.25,1.45-.38,2.18-.07-.02-.14-.03-.15-.05-.52-1.24-.67-1.34-2.05-1.35-.66,0-1.32,0-2.01,0Z"/>
    <path class="cls-2" d="m68.44,143.49c-.26-.5-.51-.9-.69-1.33-1.49-3.61-2.98-7.23-4.46-10.85-.41-1.02-.85-1.99-2.11-2.22h4.41c0,.06.02.12,0,.13-.92.59-.93.59-.54,1.63,1.12,2.97,2.25,5.94,3.38,8.91.06.17.14.33.26.62.15-.2.27-.32.33-.46,1.23-3.05,2.48-6.1,3.68-9.16.34-.87.25-.99-.6-1.59h2.85c-.33.57-.76,1.19-1.06,1.88-1.72,3.91-3.4,7.84-5.1,11.77-.08.19-.18.36-.34.67Z"/>
    <path class="cls-2" d="m149.33,131.41c-.16-.32-.3-.66-.49-.97-.72-1.15-2.19-1.45-3.3-.69-1.1.75-1.36,2.19-.44,3.24.95,1.08,2.08,2,3.07,3.04.61.64,1.23,1.31,1.66,2.07.55.98.41,2.04-.19,3.01-1.03,1.67-3.55,2.69-5.47,2.21-1.26-.31-1.65-.92-1.39-2.21.07-.35.16-.69.28-1.2.09.21.13.25.13.3.14,1.01.53,1.85,1.6,2.19,1.19.38,2.27.16,3.2-.66.89-.79.99-1.82.21-2.75-1.16-1.36-2.4-2.66-3.58-4-.47-.53-.95-1.07-1.3-1.68-.82-1.42-.47-2.79.91-3.69,1.49-.97,3.14-1.18,4.88-.9.38.06.63.25.57.7-.08.65-.14,1.31-.2,1.96l-.15.02Z"/>
    <path d="m20.65,150.6v4.56c.44,0,.85,0,1.25,0,.37,0,.74,0,.77.47.03.46-.2.82-.69.86-.45.04-.91,0-1.45,0,0,1.35,0,2.62,0,3.9-.02,1.93.27,1.93-1.97,1.89-.04,0-.09-.02-.19-.04v-12.97c1.37,0,2.72-.02,4.06.02.18,0,.36.31.54.48-.28.27-.51.67-.84.78-.44.13-.94.03-1.47.03Z"/>
    <path class="cls-2" d="m18.39,139.91c.1.25.15.35.17.45.26,1.4.85,1.97,2.24,2.19,1.11.18,2.48-.47,2.99-1.44.36-.69.32-1.4-.17-2-.79-.98-1.61-1.94-2.45-2.88-.64-.72-1.36-1.37-2.01-2.08-1.57-1.74-1.21-3.72.86-4.82,1.37-.73,2.83-.86,4.33-.62.44.07.7.29.62.8-.1.63-.14,1.27-.33,1.93-.1-.22-.2-.43-.3-.65-.45-.92-1.13-1.5-2.2-1.46-.94.03-1.68.44-2.09,1.32-.45.98-.17,1.87.53,2.58,1.02,1.05,2.14,2.01,3.18,3.05.48.48.94,1.01,1.28,1.59.64,1.1.55,2.23-.15,3.3-1.07,1.64-3.54,2.6-5.43,2.13-1.22-.31-1.66-1.01-1.37-2.24.08-.33.17-.66.3-1.16Z"/>
    <path d="m41.35,149.24c.5,0,.96-.03,1.4,0,.62.06.75.5.75,1.04,0,1.99,0,3.99,0,5.98,0,1.53,0,3.06,0,4.68.55,0,1.05-.01,1.54,0,.47.02.91.14.91.71,0,.59-.45.65-.93.64-1.21-.01-2.42,0-3.69,0v-13.06Z"/>
    <path d="m68.2,149.3c.43-.02.88-.13,1.29-.04.29.06.59.35.75.62.14.23.11.58.11.87,0,3.12,0,6.24.01,9.35,0,.25,0,.5,0,.85.54,0,1.04-.05,1.53.02.3.05.67.22.84.45.32.45.07.87-.49.88-1.33.02-2.65,0-4.04,0v-13.01Z"/>
    <path d="m111.31,149.24c.03.36.07.65.07.94,0,3.67.02,7.33,0,11,0,.35-.15.97-.33,1.01-.53.11-1.13.07-1.66-.08-.17-.05-.29-.59-.29-.9-.02-2.54-.01-5.09-.01-7.63,0-1.08,0-2.15,0-3.23,0-.92.17-1.08,1.08-1.1.34,0,.68,0,1.13,0Z"/>
    <path d="m33.01,149.27c.01.28.04.53.04.77,0,3.74.02,7.47,0,11.21,0,.34-.19.94-.36.97-.54.08-1.11-.03-1.66-.14-.09-.02-.18-.35-.18-.54-.01-3.85,0-7.7-.02-11.55,0-.47.23-.69.65-.71.5-.03,1,0,1.54,0Z"/>
    <path class="cls-2" d="m111.76,129.13h3.71c-.87.34-.93,1.04-.92,1.84.03,3.19.04,6.38,0,9.57-.01,1.17.03,2.24,1.47,2.58h-4.35c-.05-.05-.1-.1-.16-.16.14-.06.28-.11.41-.19.6-.37.86-.94.86-1.62,0-3.53,0-7.07.01-10.6,0-.74-.44-1.1-1.02-1.42Z"/>
    <path class="cls-2" d="m82.3,143.04c.82-.6,1.02-1.36,1.02-2.22,0-3.21-.02-6.42,0-9.63,0-.86,0-1.66-.98-2.04h3.65c-.9.33-.92,1.05-.92,1.84.03,3.32.03,6.65,0,9.98,0,.94.18,1.69,1.17,2.08h-3.96Z"/>
    <path d="m82.65,146.74c.09-.46.14-.79.22-1.12.28-1.12,1.17-1.56,2.24-1.07.14.06.27.48.2.63-.29.59-.56,1.24-1.03,1.67-.32.29-.94.28-1.43.35-.06,0-.16-.35-.21-.45Z"/>
  </g>
</svg>