<?xml version="1.0" encoding="UTF-8"?>
<svg id="Capa_2" data-name="Capa 2" xmlns="http://www.w3.org/2000/svg" viewBox="0 0 61.42 61.37">
  <defs>
    <style>
      .cls-1 {
        fill: #dbd302;
      }
    </style>
  </defs>
  <g id="INICIO">
    <path class="cls-1" d="m2.16,59.96c.65-1.97,1.24-3.77,1.84-5.56.52-1.55,1.01-3.11,1.59-4.63.3-.8.16-1.38-.29-2.09C-1.4,36.98-1.81,26.02,4.43,15.06,10.79,3.89,23.88-1.88,36.56.55c12.51,2.39,22.36,12.49,24.43,25.03,2.82,17.06-8.76,32.98-25.89,35.46-7.16,1.04-13.9-.35-20.1-4.11-.79-.47-1.44-.58-2.32-.29-3.21,1.09-6.45,2.08-9.67,3.11-.21.07-.43.1-.85.2ZM12.92,22.48c.09.71.14,1.43.27,2.13.62,3.32,2.48,6,4.41,8.66,5.27,7.28,12.06,12.35,20.97,14.26,1.22.26,2.59.37,3.78.1,4.95-1.13,6.85-3.67,6.84-7.71,0-.48-.41-1.17-.82-1.39-2.22-1.17-4.51-2.21-6.77-3.3-1.07-.51-1.92-.24-2.6.71-.58.81-1.17,1.61-1.79,2.4-.97,1.23-1.53,1.38-3,.79-5.13-2.06-8.89-5.67-11.74-10.33-.41-.67-.37-1.27.15-1.86.63-.72,1.37-1.38,1.85-2.19.37-.62.76-1.56.56-2.15-.89-2.51-1.98-4.96-3.05-7.4-.18-.4-.58-.91-.95-.98-1.84-.32-3.67-.37-5.14,1.12-1.95,1.97-2.91,4.35-2.96,7.12Z"/>
  </g>
</svg>