<?xml version="1.0" encoding="UTF-8"?>
<svg id="Capa_2" data-name="Capa 2" xmlns="http://www.w3.org/2000/svg" viewBox="0 0 63.36 63.43">
  <defs>
    <style>
      .cls-1 {
        fill: #dbd302;
      }
    </style>
  </defs>
  <g id="INICIO">
    <path class="cls-1" d="m31.85,0c18.47.49,31.7,14.92,31.5,31.95-.21,18.57-14.99,31.69-31.91,31.47C13.01,63.19-.15,48.59,0,31.6.16,13.23,14.72.16,31.85,0Zm-4.43,47.54c2.1,0,4.08,0,6.07,0q1.76,0,1.77-1.74c0-3.81-.02-7.63.01-11.44.02-2.35,1.71-4.12,3.9-4.17,2.14-.05,3.48,1.34,3.65,3.85.06.91.09,1.82.09,2.73.01,3.19,0,6.38.01,9.58,0,.64,0,1.24.96,1.21,2.03-.05,4.06-.03,6.09,0,.71,0,.95-.31.94-.98-.08-4.89.03-9.78-.28-14.65-.22-3.52-1.95-6.41-5.53-7.52-3.55-1.1-6.9-.72-9.48,2.37-.06.07-.19.07-.37.13,0-.61.07-1.16-.03-1.68-.05-.28-.36-.74-.56-.74-2.39-.05-4.78-.03-7.23-.03v23.09Zm-11.98-11.62c0,3.36.04,6.72-.02,10.07-.02,1.16.27,1.65,1.52,1.57,1.65-.1,3.32-.12,4.97,0,1.35.1,1.6-.47,1.58-1.64-.06-2.9-.02-5.8-.02-8.7,0-3.81-.02-7.63.01-11.44,0-.96-.24-1.43-1.33-1.38-1.78.08-3.57.09-5.34,0-1.15-.06-1.4.41-1.38,1.45.05,3.36.02,6.71.02,10.07Zm8.41-18.42c0-2.43-1.73-4.12-4.26-4.18-2.55-.05-4.49,1.7-4.52,4.09-.04,2.38,1.9,4.2,4.43,4.18,2.52-.02,4.35-1.74,4.36-4.1Z"/>
  </g>
</svg>